<svg version="1.1" id="Layer_1" xmlns="http://www.w3.org/2000/svg" xmlns:xlink="http://www.w3.org/1999/xlink" x="0px" y="0px"
	 width="100%" viewBox="0 0 1024 1024" enable-background="new 0 0 1024 1024" xml:space="preserve">
<path fill="#000000" opacity="1.000000" stroke="none" 
	d="
M472.000244,407.189453 
	C466.335876,407.195099 461.155762,407.452057 456.011566,407.131592 
	C451.246643,406.834747 449.993042,408.961121 450.030670,413.321625 
	C450.167145,429.146942 450.046326,444.974274 450.055115,460.800873 
	C450.091248,525.939758 450.139343,591.078674 450.183228,656.217529 
	C450.188507,664.055237 450.163971,664.104431 442.493744,664.118835 
	C430.665466,664.141113 418.830963,663.905457 407.011658,664.232483 
	C401.857239,664.375122 400.571808,662.547974 400.579742,657.595215 
	C400.707184,577.962646 400.657745,498.329803 400.648224,418.696991 
	C400.648132,418.030609 400.644775,417.364227 400.643463,416.697845 
	C400.624695,407.267212 400.624725,407.251740 391.375610,407.248566 
	C363.887329,407.239166 336.398224,407.137115 308.911469,407.340454 
	C304.021637,407.376648 302.269714,406.277130 302.426331,400.991333 
	C302.751526,390.016510 302.300568,379.015350 302.038025,368.028107 
	C301.934998,363.716278 303.348297,361.829010 308.095123,361.832611 
	C389.393738,361.894012 470.692444,361.810669 551.991089,361.712311 
	C554.842041,361.708862 557.042480,362.269745 558.823486,364.804260 
	C567.824646,377.613586 576.973206,390.319275 586.056580,403.070984 
	C586.715576,403.996124 587.583984,404.894836 586.745483,407.188873 
	C548.897827,407.188873 510.699005,407.188873 472.000244,407.189453 
z"/>
<path fill="#000000" opacity="1.000000" stroke="none" 
	d="
M566.701538,494.258484 
	C548.862793,469.357239 531.225891,444.752258 513.237915,419.657379 
	C517.808899,417.922272 521.781555,418.167328 525.638000,418.133453 
	C539.135071,418.014954 552.636902,418.254578 566.130432,418.004852 
	C570.978577,417.915100 574.084595,419.583191 576.888672,423.557434 
	C608.297058,468.072845 639.864563,512.475952 671.382568,556.914001 
	C687.961487,580.289124 704.511475,603.684692 721.124695,627.035217 
	C722.644775,629.171814 723.385315,631.351013 723.353394,633.983276 
	C723.254272,642.147705 723.157593,650.318237 723.379456,658.477722 
	C723.487976,662.468384 722.306580,664.227722 718.050476,664.132202 
	C709.056641,663.930298 700.052979,664.013794 691.056580,664.170288 
	C688.020020,664.223145 686.147339,662.959167 684.468140,660.574463 
	C660.967773,627.198547 637.438110,593.842957 613.851440,560.527954 
	C598.255310,538.499207 582.556335,516.543274 566.701538,494.258484 
z"/>
<path fill="#000000" opacity="1.000000" stroke="none" 
	d="
M688.017700,361.767334 
	C697.509094,361.769531 706.504333,361.774994 715.499512,361.774261 
	C723.277771,361.773651 723.290466,361.770538 723.291748,369.354279 
	C723.299683,416.995514 723.302063,464.636780 723.305298,512.278015 
	C723.307312,541.928833 723.322693,571.579712 723.275940,601.230469 
	C723.272705,603.286865 723.901978,605.510559 722.525940,607.372986 
	C720.901794,607.615479 720.364807,606.457642 719.717407,605.546448 
	C705.634766,585.723938 691.577637,565.883301 677.470947,546.077881 
	C676.165771,544.245422 675.483215,542.430908 675.486938,540.106018 
	C675.576111,483.803741 675.577209,427.501343 675.630371,371.198975 
	C675.639832,361.186798 674.415405,361.781342 685.022888,361.771515 
	C685.855774,361.770752 686.688599,361.769135 688.017700,361.767334 
z"/>
<path fill="#000000" opacity="1.000000" stroke="none" 
	d="
M508.995300,444.267883 
	C509.107971,441.515656 508.711517,439.136810 510.117462,437.002350 
	C512.279175,436.826385 512.815063,438.659576 513.719421,439.906097 
	C527.408142,458.773560 541.036438,477.685028 554.772644,496.517822 
	C556.644470,499.084167 557.369629,501.706757 557.366028,504.847626 
	C557.307739,555.805115 557.260864,606.762878 557.433716,657.719788 
	C557.450989,662.798523 555.902222,664.391479 550.897156,664.265869 
	C539.247681,663.973267 527.581970,664.008606 515.930481,664.261719 
	C511.229095,664.363770 509.527985,662.922302 509.587494,658.031189 
	C509.820648,638.883362 509.729553,619.730774 509.658234,600.580322 
	C509.464722,548.629639 509.219818,496.679108 508.995300,444.267883 
z"/>
</svg>